<svg xmlns="http://www.w3.org/2000/svg" width="54" height="43" viewBox="0 0 54 43"><path fill="#124191" d="M37.482,25.928l3.872-3.869l-4.184-4.183c-3.403-3.402-2.404-5.211-1.621-5.993 c0.497-0.499,0.997-0.873,1.341-1.061c0.469,0.905,1.092,1.778,1.872,2.528c4.058,4.088,8.488,3.525,11.891,0.095 c2.027-2.03,2.997-3.902,3.245-4.839L50.56,6.764c-0.407,0.875-1.343,2.373-2.402,3.435c-1.842,1.872-3.589,1.872-4.774,0.904 l6.958-6.929L49.468,3.3c-4.09-4.12-7.895-4.338-11.328-0.904c-2.28,2.278-2.59,5.086-1.593,7.645l-2.561-3.027 c-0.249,0.093-0.716,0.468-1.185,0.936c-1.342,1.373-1.654,3.495-1.311,4.899l-1.717-1.465l-3.403,3.402l4.682,4.681 c-3.713-3.059-7.053-2.901-10.142,0.187c-3.122,3.122-2.935,6.931-0.344,10.113l-0.438-0.437c-2.776-2.778-5.461-3.37-8.114-0.688 c-1.561,1.532-1.81,3.029-1.654,4.372L3.808,26.49L0,30.298L12.67,43h7.741l-5.337-5.334c-1.873-1.842-2.434-3.122-1.28-4.278 c0.843-0.874,1.811-0.844,2.997,0.342l6.429,6.462l3.871-3.87l-4.806-4.807c3.807,3.153,7.957,2.371,11.109-0.811 c1.655-1.624,2.56-3.121,2.998-4.152l-3.403-1.903c-0.498,0.874-1.247,1.966-2.058,2.811c-1.875,1.871-3.623,1.871-4.809,0.903 l6.898-6.897L37.482,25.928z M23.688,26.24c-1.061-1.216-1.093-2.651,0-3.745c1.062-1.061,2.435-1.092,3.777,0L23.688,26.24z M40.946,8.98c-1.06-1.217-1.092-2.622,0-3.745c1.062-1.062,2.437-1.091,3.745,0L40.946,8.98z"/></svg>